<?xml version="1.0" encoding="utf-8"?>
<svg id="master-artboard" viewBox="0 0 666.5863037109375 663.9151611328125" version="1.1" xmlns="http://www.w3.org/2000/svg" x="0px" y="0px" style="enable-background:new 0 0 336 235.2;" width="666.5863037109375px" height="663.9151611328125px"><defs><style>.cls-1{fill: white; fill-opacity: 25%;}</style></defs><rect id="ee-background" x="0" y="0" width="666.5863037109375" height="663.9151611328125" style="fill: white; fill-opacity: 0; pointer-events: none;"/><g transform="matrix(0.4777621030807495, 0, 0, 0.4777621030807495, 2.4880294799804688, -0.000012885512660432141)"><g id="_レイヤー_1-2"><path class="cls-1" d="M807.2,898.61l-25.26,482.75c1.89-.25,3.8-.46,5.69-.72l25.18-481.73-5.61-.3Z"/><path class="cls-1" d="M836.85,898.93l-19.83,403.18c0,20.75-1.68,37.75-4.61,51.9l23.81-454.97-11.26-.58-25.1,480.48c26.64-4.19,52.72-10.01,78.27-17.13v-462.86h-41.27Z"/><path class="cls-1" d="M816.5,898.61l-25.14,481.56c1.87-.27,3.76-.44,5.62-.73l25.13-480.53-5.62-.3Z"/><path class="cls-1" d="M851.57,672.03c.13,8.6,19.09,8.6,19.24,0,0,.63-4.33-3.37-9.62-3.37s-9.62-.26-9.62,3.37Z"/><path class="cls-1" d="M880.14,872.82c-20.92,0-43.98.25-43.98.25v4.94h-1.48l.19-4.65c-2.97-.11-4.96-.03-10.68-.41l.03,5.14-2.94.03.28-5.14s-2.55-.12-4.62-.23l-.22,5.4-3.97.03.31-5.33s-2.38-.11-4.33-.21l-.23,5.45,1.85.11h-.38s46.07,4.23,95.3,1.06l-25.13-.53v-5.9Z"/><path class="cls-1" d="M879.25,849.43c-20.92,0-44,.25-44,.25v8.11h-.8l.19-7.93c-2.93-.15-4.93-.02-10.66-.63l-.21,8.42-2.71-.03.33-8.37s-2.56-.16-4.68-.33l-.34,8.65-3.82-.05.31-8.45s-2.38-.16-4.35-.34l-.32,8.74-15.99-.21s40.45,7.75,128,3.17l-40.96-1.95v-9.07Z"/><path class="cls-1" d="M1385.72,693.75C1385.72,310.61,1074.66,0,690.96,0c-905.88,33.31-927.75,1321.09-25.87,1386.81-22.02-33.69-8.18-92.2-8.18-92.2l2.44-36.31s-46.76-10.63-59.83-78.7c-11.49-51.2-33.52-141.84-37.22-162.79,0,0-23.44-109.93-53.05-139.51-23.97-23.97-40.42-33.99-76.73-38.68,0,0,2.35-9.97,9.94-9.97,0,0-9.62,1.9,2.94,4.69,12.88,2.87,59.03,18.16,80.74,61.53,21.68,43.38,55.45,178.91,65.98,209.4,10.55,30.48,23.83,87.2,59.02,97.17l17.56,6.46.19-12.2c-30.66-15.5-57.86-53.26-72.4-102.65-21.52-70.14-50.94-163.93-59.77-184.98-10.7-25.47-46.5-76.01-90.85-81.65,0,0,3.23-10.66,34.45,9.6,20.89,13.56,38.84,29.32,52.82,51.74,37.53,71.29,36.42,36.72,46.34,57.58,25.61,54.1,50.78,132.61,75,162.23,12.66,34,10.33,4.21,19.44,4.21,17.81,0,22.27-147.22,22.27-182.83s10.31-49.18,10.31-49.18l-.43-47.37c172.99,19.08,339.87,4.85,339.87,4.85,3.75,20.83-3.95,39.55-3.95,39.55,26.47,77.46,19.9,368.13,36.77,368.13,8.81,0,61.11-26,107.4-64.78,22.1-22.43,42.75-46.27,61.65-71.52,9.63-18.37,14.69-37.55,12.38-56.85-11.72-97.99-72.67-107.38-72.67-107.38-20.18-5.07-36.68-5.49-52.03,0-14.14,5.07-31.19,11.97-50.18,14.07-18.98,2.11-26.5-5.14-24.91-4.21,6.27,6.3,34.76.47,50.23-4.7,20.64,0,8.04-12.57,28.59-16.88,45.68-4.3,43.61,11.25,67.97,11.25s7.98-17.58,7.98-17.58c22.15,16.18,51.32,35.88,59.55,93.54,3.72,15.55,3.45,32.12.43,49.07,69.84-108.2,110.53-236.93,110.53-375.22ZM1130.13,948.5s85.95-27.24,114.7,57.24c9.99,29.28,12.17,45.46,12.19,45.72-46.42,73.43-106.78,137.21-177.3,187.64-3.89-60.97-14.79-214.05-19.3-276.71,0,0,39.52,2,69.71-13.9ZM429.89,835.96c-1.35,3.17,1.55,4.98,3.17,5.19,43.44,5.34,72.56,25.1,94.23,73.77,22.34,62.23,47.85,178.61,67.74,263.89,19.95,85.3,48.7,80.21,60.9,86.87-9.1,45.52-9.51,75.89-5.82,96.66C299.21,1341.3,21.08,1050.14,21.08,693.94,16.23,204.27,546.91-125.61,982.83,91.16c-1.66,43.73-13.16,85.51-83.95,122.83-54.8,28.85-98.98,16.02-134.06,51.11-59.42,46.87,22.14,227.77-7.42,277.53-29.58,49.76-152.3,46.7-149.74-11.89,1.29-28.93,7.51-28.96,22.74-38.3,33.68-13.32,107.62-77.37,75.35-159.05-39.1-83.78-309.09-70.01-256.02,133.29,13.56,114.19,6.36,171.61-55.55,185.22,54.29-101.88,38.46-250.88-97.08-256.89-185.01.2-217.03,214.74-118.55,291.59-134.99,48.25-149.28,159.4-59.36,200.82,82.93,17.76,168.61-7.47,184.89-22.34,60.35-25.75,101.31-33.69,129.18-33.16-1.81,1.87-3.1,3.36-3.36,4.03ZM590.37,460.23c-51.77,11.41-60.39-2.73-71.44-31.93,0,0-39.34-65.81,46.09-79.24,83.14-4.51,105.23,93.54,25.35,111.17ZM317.65,620.22c-35.13,23.39-101.28-11.72-98.85-66.34,3.01-68.05,25.19-102.38,75.26-107.77,0,0,50.32-.25,63.65,51.95,9.48,37.15,4.7,92.35-40.05,122.15ZM695.29,813.61c-11.27-7.03-8.44-14.52-4.71-20.62,0,0,5.4-6.08,15.73-9.83,10.28-3.75,14.51-10.1,23.43-18.53,0,0-3.28,11.25,4.45,13.36,12.66,11.27-14.77,2.1-32.08,10.31,0,0,1.34,3.29,10.28,4.47,51.35,11.25,239.45,12.89,312.94,3.04-42.56,4.92-45.13-7.87-49.71-7.51-71.26,5.64-123.73,1.79-123.73,1.79,151.86-18.29,69-79.96,69-79.96,0,0-.62.12-1.76.31,69.53,61.11-52.89,78.96-72.75,80.2,16.23-2.32,139.96-21.14,69.38-79.69h0c-12.1,1.71-44.34,4.9-79.81-3.01-17.83-9.39,4.66-6.56,7.48-6.56,0,0,33.88,6.65,73.13-.93,3.76-3.75,5.65-12.2-3.74-9.38-9.38,2.8-53.47,7.48-78.76.94-1.4-7.05-3.53-2.69-3.53-2.69,0,0-17.57-24.74,6.32-36.15,0,0,31.91,10.61,75.97-1.59,0,0,5.63,2.45,5.63.34s16.86,17.9,8.44,33.71c-6.1,11.45-1.07,20.62-1.07,20.62,36.22,4.92,72.29,35.18,85.24,55.8,12.15,19.45,26.94,27.9,26.94,27.9l1.4.21c16.16,6.81,29.52,22.29,14.99,32.82,0,0-242.85,16.88-359.11-9.38ZM1273.18,991.53c-64-131.58-152.74-67.87-152.74-67.87-18.92,18.77-63.16,17.19-63.16,17.19.08-18.36-7.61-55.03-11.52-64.05,4.94-4.92,3.9-39.54,3.9-39.54,13.17.05,13.21-13.14,6.63-13.16,13.23-13.13,1.28-25.66-9.75-31.58-11.04-5.93-22.12-10.91-37.07-35.91-39.83-50.05-80.34-49.24-82.68-51.61-2.32-2.37-2.32-12.51.04-15.55,9.5-17.36-2.18-40.48-13.47-40.54-4.24-.01-71.13.69-71.13.69-17.86-.05-22.38,20.16-17.5,33.36,4.91,4.93,4.61,20.73-5.27,20.69-32.95-.13-79.25,43.96-88.48,57.38-9.22,13.36-24.4,19.93-37.09,26.92-12.64,8.9-6.18,21.61-3.11,24.69,3.04,3.06,3.04-.68-.98,6.57-4.04,9.65,11.49,11.6,11.49,11.6,0,0,1.77,31.08,1.72,48.95-16.05,8.43-9.94,144.98-32.83,225.88-39.08,34.64-90.45-311.1-217.91-290.2-.11,0-.19-.03-.32-.03-43.46-1.92-81.07,15.74-122.8,23.73-38.59,7.4-88.33,16.14-115.17-1.53,0,0-47.84-57.86,77.07-97.38,158.91-26.81,189.43-90.64,214.74-132.74,40.47-67.48,3.93-98.83,34.39-97.49,30.54,10.27,24.53,43.8,23.18,74.08-22.89,88.31,65.45,87.42,162.07,27.29,58.82-33.48,114.81-11.35,191.23-49.33,151.56-49.77,130.96-193.65,20.81-93.39-122.09,83.58-113.42,7.81-113.42,7.81-6.8-47.94,37.58-54.06,87.8-57.43,50.17-3.33,53.6-68.5,9.75-64.82-43.89,3.65-63.16,44.08-76.05,55.51-33.07,29.89-36.9-78.49,32.85-109.03,85.79-50.64,138.91-48.8,175.06-50.3,56.52-2.33,80.75-26.09,90.82-49.17,220.3,193.35,283.47,554.18,134.24,813.83-1.03-8.02-2.77-15.89-5.33-23.53Z"/></g></g></svg>